<svg xmlns="http://www.w3.org/2000/svg" width="48" height="48" viewBox="0 0 48 48">
  <g id="Group_67871" data-name="Group 67871" transform="translate(0.076 -0.285)">
    <circle id="Ellipse_26" data-name="Ellipse 26" cx="24" cy="24" r="24" transform="translate(-0.076 0.285)" fill="#dff6ff"/>
    <g id="noun-users-446035" transform="translate(10.56 14.659)">
      <path id="Path_105328" data-name="Path 105328" d="M201.812,98.861a6.407,6.407,0,0,0,2.486-5c0-2.779-2.122-4.266-4.759-4.266-2.607,0-4.759,1.488-4.759,4.266a6.407,6.407,0,0,0,2.486,5c-3.637.758-6.3,3.228-6.3,5.557.06,2.779,3.88,4.266,8.609,4.266s8.548-1.488,8.548-4.266C208.116,102.089,205.449,99.619,201.812,98.861Z" transform="translate(-185.928 -89.599)" fill="#181819"/>
      <path id="Path_105329" data-name="Path 105329" d="M453.85,167.62a3.549,3.549,0,0,0,1.394-2.807,2.681,2.681,0,0,0-5.335,0,3.64,3.64,0,0,0,1.394,2.807,5.6,5.6,0,0,0-2.182.954c2.092,1.123,3.547,2.835,3.759,4.575,2.516-.084,4.516-.9,4.516-2.414,0-1.291-1.516-2.694-3.546-3.115Z" transform="translate(-430.117 -158.751)" fill="#181819"/>
      <path id="Path_105330" data-name="Path 105330" d="M106.277,168.576a5.81,5.81,0,0,0-2.182-.954,3.549,3.549,0,0,0,1.394-2.807,2.681,2.681,0,0,0-5.335,0,3.64,3.64,0,0,0,1.394,2.807c-2.031.421-3.546,1.824-3.546,3.115,0,1.516,2,2.33,4.516,2.386.212-1.712,1.667-3.424,3.759-4.547Z" transform="translate(-98.002 -158.752)" fill="#181819"/>
    </g>
  </g>
</svg>
