<svg id="Group_68324" data-name="Group 68324" xmlns="http://www.w3.org/2000/svg" width="36.531" height="36.531" viewBox="0 0 36.531 36.531">
  <path id="Ellipse_3075" data-name="Ellipse 3075" d="M3.766-14.5A18.286,18.286,0,0,1,22.031,3.766,18.286,18.286,0,0,1,3.766,22.031,18.286,18.286,0,0,1-14.5,3.766,18.286,18.286,0,0,1,3.766-14.5Zm0,34.889A16.623,16.623,0,1,0-12.858,3.766,16.642,16.642,0,0,0,3.766,20.389Z" transform="translate(14.5 14.5)" fill="#b40000"/>
  <path id="Path_106317" data-name="Path 106317" d="M-12393.868-3323.9c-4.521,0-7.178-3.751-7.3-3.923a.822.822,0,0,1,.205-1.143.82.82,0,0,1,1.142.2c.11.156,2.652,3.7,6.813,3.162a.819.819,0,0,1,.919.708.82.82,0,0,1-.708.92A8.374,8.374,0,0,1-12393.868-3323.9Z" transform="translate(12421.712 3344.427)" fill="#b40000"/>
  <path id="Path_106318" data-name="Path 106318" d="M-12399.521-3323.881a8.283,8.283,0,0,1-1.076-.07.821.821,0,0,1-.708-.92.819.819,0,0,1,.921-.708c4.16.539,6.7-3.011,6.811-3.163a.825.825,0,0,1,1.145-.2.825.825,0,0,1,.206,1.141C-12392.344-3327.633-12395-3323.881-12399.521-3323.881Z" transform="translate(12408.005 3344.408)" fill="#b40000"/>
  <path id="Path_106319" data-name="Path 106319" d="M-12563.4-3161.506a.819.819,0,0,1-.382-.095.818.818,0,0,1-.344-1.109c.1-.2,2.545-4.73,6.888-4.73l.158,0c4.38.113,6.939,4.236,7.048,4.411a.822.822,0,0,1-.275,1.129.818.818,0,0,1-1.127-.274c-.021-.034-2.212-3.535-5.687-3.624h-.115c-3.366,0-5.415,3.814-5.436,3.853A.826.826,0,0,1-12563.4-3161.506Z" transform="translate(12575.394 3191.911)" fill="#b40000"/>
</svg>
