<svg id="Group_68326" data-name="Group 68326" xmlns="http://www.w3.org/2000/svg" width="36.002" height="36.002" viewBox="0 0 36.002 36.002">
  <path id="Ellipse_3075" data-name="Ellipse 3075" d="M3.5-14.5a18.021,18.021,0,0,1,18,18,18.021,18.021,0,0,1-18,18,18.021,18.021,0,0,1-18-18A18.021,18.021,0,0,1,3.5-14.5Zm0,34.383A16.4,16.4,0,0,0,19.883,3.5,16.4,16.4,0,0,0,3.5-12.881,16.4,16.4,0,0,0-12.881,3.5,16.4,16.4,0,0,0,3.5,19.883Z" transform="translate(14.5 14.5)" fill="#7c9204"/>
  <circle id="Ellipse_3078" data-name="Ellipse 3078" cx="2.5" cy="2.5" r="2.5" transform="translate(9.071 13.5)" fill="#7c9204"/>
  <circle id="Ellipse_3077" data-name="Ellipse 3077" cx="2.5" cy="2.5" r="2.5" transform="translate(22.071 13.5)" fill="#7c9204"/>
  <path id="Path_106317" data-name="Path 106317" d="M-9479.216-3224.056h-.095c-6.618-.058-10.906-6.2-11.086-6.458a.809.809,0,0,1,.209-1.124.81.81,0,0,1,1.126.208c.039.057,4,5.705,9.766,5.756s9.67-5.484,9.708-5.54a.809.809,0,0,1,1.126-.206.809.809,0,0,1,.205,1.126C-9468.434-3230.038-9472.646-3224.056-9479.216-3224.056Z" transform="translate(9497.262 3252.697)" fill="#7c9204"/>
</svg>
