<svg id="Group_68325" data-name="Group 68325" xmlns="http://www.w3.org/2000/svg" width="36.447" height="36.447" viewBox="0 0 36.447 36.447">
  <path id="Ellipse_3075" data-name="Ellipse 3075" d="M3.724-14.5A18.244,18.244,0,0,1,21.947,3.724,18.244,18.244,0,0,1,3.724,21.947,18.244,18.244,0,0,1-14.5,3.724,18.244,18.244,0,0,1,3.724-14.5Zm0,34.809A16.6,16.6,0,0,0,20.309,3.724,16.6,16.6,0,0,0,3.724-12.861,16.6,16.6,0,0,0-12.861,3.724,16.6,16.6,0,0,0,3.724,20.309Z" transform="translate(14.5 14.5)" fill="#e1b31f"/>
  <circle id="Ellipse_3075-2" data-name="Ellipse 3075" cx="2.5" cy="2.5" r="2.5" transform="translate(9.941 12.5)" fill="#e1b31f"/>
  <circle id="Ellipse_3076" data-name="Ellipse 3076" cx="2.5" cy="2.5" r="2.5" transform="translate(21.941 12.5)" fill="#e1b31f"/>
  <path id="Line_184" data-name="Line 184" d="M3.441-12.861H-13.681a.819.819,0,0,1-.819-.819.819.819,0,0,1,.819-.819H3.441a.819.819,0,0,1,.819.819A.819.819,0,0,1,3.441-12.861Z" transform="translate(23.372 37.809)" fill="#e1b31f"/>
</svg>
