<svg xmlns="http://www.w3.org/2000/svg" width="36.265" height="36.265" viewBox="0 0 36.265 36.265">
  <g id="Group_68327" data-name="Group 68327" transform="translate(0 0)">
    <path id="Path_106318" data-name="Path 106318" d="M18.133,36.265a18.182,18.182,0,1,1,13.22-5.734l.112-1.209L31.273,28.1a16.341,16.341,0,0,0,3.361-9.972,16.511,16.511,0,1,0-8.289,14.31l.458.28,1.123.585.13,0a18.027,18.027,0,0,1-9.924,2.963Z" transform="translate(0 0)" fill="#249204"/>
    <path id="Path_106320" data-name="Path 106320" d="M-9479.134-3224h-.1c-6.666-.058-10.985-6.242-11.166-6.505a.815.815,0,0,1,.211-1.133.815.815,0,0,1,1.133.209c.04.057,4.03,5.747,9.837,5.8s9.741-5.524,9.779-5.58a.814.814,0,0,1,1.134-.207.816.816,0,0,1,.208,1.134C-9468.271-3230.026-9472.516-3224-9479.134-3224Z" transform="translate(9497.094 3253.075)" fill="#249204"/>
    <path id="Path_106318-2" data-name="Path 106318" d="M-8211.206-3372.774a.815.815,0,0,1-.616-.28.816.816,0,0,1,.081-1.15c.383-.333,3.85-3.206,7.51-1.467a6.646,6.646,0,0,1,2.023,1.531.816.816,0,0,1-.049,1.152.816.816,0,0,1-1.152-.048,5.007,5.007,0,0,0-1.522-1.162c-2.77-1.316-5.62,1.121-5.74,1.225A.811.811,0,0,1-8211.206-3372.774Z" transform="translate(8217.867 3389.174)" fill="#249204"/>
    <path id="Path_106319" data-name="Path 106319" d="M-8211.206-3372.774a.815.815,0,0,1-.616-.28.816.816,0,0,1,.081-1.15c.383-.333,3.85-3.206,7.51-1.467a6.646,6.646,0,0,1,2.023,1.531.816.816,0,0,1-.049,1.152.816.816,0,0,1-1.152-.048,5.007,5.007,0,0,0-1.522-1.162c-2.77-1.316-5.62,1.121-5.74,1.225A.811.811,0,0,1-8211.206-3372.774Z" transform="translate(8231.867 3389.174)" fill="#249204"/>
    <path id="Path_106321" data-name="Path 106321" d="M-7954.433-3206.134l-.144,0c-3.736-.117-8.06-4.971-8.241-5.178a.816.816,0,0,1,.072-1.15.816.816,0,0,1,1.15.072c1.113,1.26,4.555,4.549,7.071,4.627a2.171,2.171,0,0,0,1.686-.655,2.665,2.665,0,0,0,.816-1.989c-.008-2.319-2.407-5.191-3.331-6.1a.815.815,0,0,1-.009-1.153.816.816,0,0,1,1.153-.008c.155.153,3.806,3.792,3.817,7.257a4.28,4.28,0,0,1-1.294,3.147A3.756,3.756,0,0,1-7954.433-3206.134Z" transform="translate(7982.867 3239.756)" fill="#249204"/>
    <path id="Path_106323" data-name="Path 106323" d="M-7883.8-3153.767a.812.812,0,0,1-.584-.247l-3.369-3.461a.815.815,0,0,1,.016-1.153.815.815,0,0,1,1.152.016l3.37,3.461a.815.815,0,0,1-.017,1.153A.811.811,0,0,1-7883.8-3153.767Z" transform="translate(7912.048 3184.028)" fill="#249204"/>
  </g>
</svg>
